<svg width="300" height="300" xmlns="http://www.w3.org/2000/svg" class="el-tooltip" preserveAspectRatio="xMidYMid meet">

 <g>
  <title>background</title>
  <rect fill="none" id="canvas_background" height="302" width="302" y="-1" x="-1"/>
 </g>
 <g>
  <title>Layer 1</title>
  <g stroke="null" id="svg_1" class="iconsvg-imagesvg">
   <g stroke="null" id="svg_2">
    <circle stroke="null" id="svg_3" r="45.359105" cy="141.99727" cx="149.70682" fill="#2184C7"/>
    <path stroke="null" id="svg_4" d="m149.70682,1.08c-82.345374,0 -149.10682,63.069287 -149.10682,140.91727c0,43.930496 21.27032,83.146006 54.610809,109.002386l0,-109.002386c0,-49.329917 42.299236,-89.305908 94.496011,-89.305908c52.169952,0 94.496011,39.975991 94.496011,89.305908c0,43.879798 -33.501424,80.332223 -77.624597,87.860993l5.149939,-13.435178l-92.591607,15.564527l60.538603,68.012419l6.571536,-17.161538c1.153372,0.025349 2.279921,0.050699 3.433292,0.050699c82.345374,0 149.079997,-63.094637 149.079997,-140.91727c0.026823,-77.822633 -66.7078,-140.891921 -149.053174,-140.891921z" fill="#07326E"/>
   </g>
  </g>
 </g>
</svg>